<svg width="54" height="48" viewBox="0 0 54 48" fill="none" xmlns="http://www.w3.org/2000/svg">
<path d="M27 0.666626C30.2375 0.666626 32.8333 3.26246 32.8333 6.49996C32.8333 9.73746 30.2375 12.3333 27 12.3333C23.7625 12.3333 21.1667 9.73746 21.1667 6.49996C21.1667 3.26246 23.7917 0.666626 27 0.666626ZM50.3383 35.5154C51.9403 35.6838 53.25 34.3608 53.25 32.75C53.25 31.1391 51.938 29.8559 50.3415 29.6418C45.0491 28.9323 40.4792 26.2719 36.9167 22.0166L33.0083 17.35C32.4657 16.6922 31.7841 16.1627 31.0125 15.7996C30.241 15.4365 29.3986 15.2488 28.5458 15.25H25.5417C23.7625 15.25 22.1292 16.0083 21.0208 17.35L17.1125 22.0166C13.5252 26.2719 8.95151 28.9324 3.65854 29.6419C2.06199 29.8559 0.75 31.1391 0.75 32.75C0.75 34.3608 2.05969 35.6838 3.66169 35.5154C8.79414 34.976 13.4468 33.0059 17.4052 29.8197C18.8164 28.6838 21.1667 29.6115 21.1667 31.423C21.1667 32.2244 20.6786 32.9449 19.9344 33.2422L9.85 37.2708C7.89583 38.0583 6.58333 40.0416 6.58333 42.1125C6.58333 45 8.91667 47.3333 11.8042 47.3333H16.7917C17.5971 47.3333 18.25 46.6804 18.25 45.875C18.25 43.9411 19.0182 42.0864 20.3857 40.719C21.7531 39.3515 23.6078 38.5833 25.5417 38.5833H34.2917C35.1083 38.5833 35.75 39.225 35.75 40.0416C35.75 40.8583 35.1083 41.5 34.2917 41.5H25.5417C23.1208 41.5 21.1667 43.4541 21.1667 45.875C21.1667 46.6804 21.8196 47.3333 22.625 47.3333H42.1958C45.0833 47.3333 47.4167 45 47.4167 42.1125C47.4167 40.0416 46.1042 38.0583 44.15 37.2708L34.0656 33.2422C33.3214 32.9449 32.8333 32.2244 32.8333 31.423C32.8333 29.6115 35.1836 28.6838 36.5948 29.8197C40.5532 33.0059 45.2059 34.976 50.3383 35.5154Z" fill="url(#paint0_linear_1751_264)"/>
<defs>
<linearGradient id="paint0_linear_1751_264" x1="-26.6667" y1="37.8158" x2="62.5475" y2="45.1534" gradientUnits="userSpaceOnUse">
<stop stop-color="#6AE6C4"/>
<stop offset="1" stop-color="#8C84F6"/>
</linearGradient>
</defs>
</svg>
