<svg width="73" height="82" viewBox="0 0 73 82" fill="none" xmlns="http://www.w3.org/2000/svg">
<g filter="url(#filter0_b_261_1430)">
<path d="M0 45.4046C0 25.2989 16.3943 9 36.5 9C56.6057 9 73 25.2989 73 45.4046C73 65.5102 56.6057 81.8091 36.5 81.8091C16.3943 81.8091 0 65.5102 0 45.4046Z" fill="url(#paint0_radial_261_1430)"/>
<path d="M1.5 45.4046C1.5 26.1324 17.2176 10.5 36.5 10.5C55.7824 10.5 71.5 26.1324 71.5 45.4046C71.5 64.6767 55.7824 80.3091 36.5 80.3091C17.2176 80.3091 1.5 64.6767 1.5 45.4046Z" stroke="white" stroke-width="3"/>
</g>
<g filter="url(#filter1_f_261_1430)">
<ellipse cx="36.265" cy="28.6025" rx="23.1635" ry="14.9352" fill="url(#paint1_radial_261_1430)" fill-opacity="0.2"/>
</g>
<defs>
<filter id="filter0_b_261_1430" x="-5" y="4" width="83" height="82.8091" filterUnits="userSpaceOnUse" color-interpolation-filters="sRGB">
<feFlood flood-opacity="0" result="BackgroundImageFix"/>
<feGaussianBlur in="BackgroundImageFix" stdDeviation="2.5"/>
<feComposite in2="SourceAlpha" operator="in" result="effect1_backgroundBlur_261_1430"/>
<feBlend mode="normal" in="SourceGraphic" in2="effect1_backgroundBlur_261_1430" result="shape"/>
</filter>
<filter id="filter1_f_261_1430" x="0.147028" y="0.712717" width="72.2372" height="55.7795" filterUnits="userSpaceOnUse" color-interpolation-filters="sRGB">
<feFlood flood-opacity="0" result="BackgroundImageFix"/>
<feBlend mode="normal" in="SourceGraphic" in2="BackgroundImageFix" result="shape"/>
<feGaussianBlur stdDeviation="6.47727" result="effect1_foregroundBlur_261_1430"/>
</filter>
<radialGradient id="paint0_radial_261_1430" cx="0" cy="0" r="1" gradientUnits="userSpaceOnUse" gradientTransform="translate(6.10649 9) rotate(47.9449) scale(108.98 79.1823)">
<stop stop-color="white" stop-opacity="0.36"/>
<stop offset="1" stop-color="white" stop-opacity="0"/>
</radialGradient>
<radialGradient id="paint1_radial_261_1430" cx="0" cy="0" r="1" gradientUnits="userSpaceOnUse" gradientTransform="translate(36.265 13.6673) rotate(90) scale(22.1342 34.3328)">
<stop stop-color="white"/>
<stop offset="1" stop-color="white" stop-opacity="0"/>
</radialGradient>
</defs>
</svg>
